<mxfile host="app.diagrams.net" modified="2022-04-11T13:35:36.057Z" agent="5.0 (Windows)" etag="watqUqMtbfM6DMIKbKf8" version="17.4.2" type="github">
  <diagram id="JNqiNeZWhi2bh3oIFMcS" name="Page-1">
    <mxGraphModel dx="1038" dy="564" grid="1" gridSize="10" guides="1" tooltips="1" connect="1" arrows="1" fold="1" page="1" pageScale="1" pageWidth="827" pageHeight="1169" math="0" shadow="0">
      <root>
        <mxCell id="0" />
        <mxCell id="1" parent="0" />
        <mxCell id="NUHnN5wiZbhzoJatKC8D-22" value="service de collaboration" style="rounded=0;whiteSpace=wrap;html=1;" vertex="1" parent="1">
          <mxGeometry x="100" y="120" width="640" height="80" as="geometry" />
        </mxCell>
      </root>
    </mxGraphModel>
  </diagram>
</mxfile>
